HIERARCHY
ROOT Hips
{
  OFFSET -13.0721 38.0325 6.90851
  CHANNELS 6 Xposition Yposition Zposition Zrotation Xrotation Yrotation
  JOINT LeftHip
  {
    OFFSET 3.43 2.36234e-013 0
    CHANNELS 6 Xposition Yposition Zposition Zrotation Xrotation Yrotation
    JOINT LeftKnee
    {
      OFFSET -2.4869e-014 -18.47 -2.22045e-015
      CHANNELS 6 Xposition Yposition Zposition Zrotation Xrotation Yrotation
      JOINT LeftAnkle
      {
        OFFSET 1.06579e-014 -17.95 -2.18719e-014
        CHANNELS 6 Xposition Yposition Zposition Zrotation Xrotation Yrotation
        End Site
        {
          OFFSET 0 -3.12 0
        }
      }
    }
  }
  JOINT RightHip
  {
    OFFSET -3.43 2.26897e-013 -3.55271e-014
    CHANNELS 6 Xposition Yposition Zposition Zrotation Xrotation Yrotation
    JOINT RightKnee
    {
      OFFSET 2.84217e-014 -18.47 -3.10862e-015
      CHANNELS 6 Xposition Yposition Zposition Zrotation Xrotation Yrotation
      JOINT RightAnkle
      {
        OFFSET 2.04555e-015 -17.95 -9.35045e-014
        CHANNELS 6 Xposition Yposition Zposition Zrotation Xrotation Yrotation
        End Site
        {
          OFFSET 0 -3.12 0
        }
      }
    }
  }
  JOINT Chest
  {
    OFFSET -3.19744e-014 4.57 -3.01981e-014
    CHANNELS 6 Xposition Yposition Zposition Zrotation Xrotation Yrotation
    JOINT Chest2
    {
      OFFSET -1.42109e-014 6.57 4.44089e-016
      CHANNELS 6 Xposition Yposition Zposition Zrotation Xrotation Yrotation
      JOINT LeftCollar
      {
        OFFSET 1.06 4.19 1.76
        CHANNELS 6 Xposition Yposition Zposition Zrotation Xrotation Yrotation
        JOINT LeftShoulder
        {
          OFFSET 5.81 7.81597e-014 4.44089e-015
          CHANNELS 6 Xposition Yposition Zposition Zrotation Xrotation Yrotation
          JOINT LeftElbow
          {
            OFFSET -5.48584e-015 -12.08 1.09829e-013
            CHANNELS 6 Xposition Yposition Zposition Zrotation Xrotation Yrotation
            JOINT LeftWrist
            {
              OFFSET 0 -9.82 -4.44089e-016
              CHANNELS 6 Xposition Yposition Zposition Zrotation Xrotation Yrotation
              End Site
              {
                OFFSET 0 -7.37 0
              }
            }
          }
        }
      }
      JOINT RightCollar
      {
        OFFSET -1.06 4.19 1.76
        CHANNELS 6 Xposition Yposition Zposition Zrotation Xrotation Yrotation
        JOINT RightShoulder
        {
          OFFSET -6.06 -2.13163e-014 9.27036e-015
          CHANNELS 6 Xposition Yposition Zposition Zrotation Xrotation Yrotation
          JOINT RightElbow
          {
            OFFSET 1.84499e-013 -11.08 -2.17866e-014
            CHANNELS 6 Xposition Yposition Zposition Zrotation Xrotation Yrotation
            JOINT RightWrist
            {
              OFFSET 0 -9.82 -4.44089e-016
              CHANNELS 6 Xposition Yposition Zposition Zrotation Xrotation Yrotation
              End Site
              {
                OFFSET 0 -7.14001 0
              }
            }
          }
        }
      }
      JOINT Neck
      {
        OFFSET 5.32907e-014 4.05 1.38778e-014
        CHANNELS 6 Xposition Yposition Zposition Zrotation Xrotation Yrotation
        JOINT Head
        {
          OFFSET -3.55271e-015 5.19 -3.55271e-015
          CHANNELS 6 Xposition Yposition Zposition Zrotation Xrotation Yrotation
          End Site
          {
            OFFSET 0 4.14001 0
          }
        }
      }
    }
  }
}
MOTION
Frames:	6
Frame Time:	0.0333333
17.947 38.5729 -6.17418 0.442134 0.144978 -0.206946 3.43 -6.66134e-015 0 7.59384 -9.37279 5.87616 -2.4869e-014 -18.47 -2.22045e-015 1.98111 26.7948 9.29572 -7.02273e-015 -17.95 -1.89809e-015 -11.9667 -14.8141 -1.56129 -3.43 1.22125e-013 -3.55271e-014 -9.00335 -8.16431 -4.91251 2.84217e-014 -18.47 -3.10862e-015 -1.10701 26.4699 -13.6025 3.30021e-014 -17.95 -1.0847e-014 13.2635 -14.8218 1.73279 -3.19744e-014 4.57 -3.01981e-014 -0.267687 -3.44577 0.144017 -1.42109e-014 6.57 4.44089e-016 -0.254238 -3.15539 0.110397 1.06 4.19 1.76 9.16008 0.440944 1.37021 5.81 7.81597e-014 4.44089e-015 86.2674 0.85491 6.30662 -2.84402e-014 -12.08 -9.76627e-016 -4.05154 -0.0802085 -8.46965 0 -9.82 -4.44089e-016 -0.423912 9.39938e-005 0.000225274 -1.06 4.19 1.76 -8.73068 0.446819 -1.42513 -6.06 -2.13163e-014 9.27036e-015 -84.8883 10.5263 -2.72704 2.84028e-014 -11.08 5.35937e-017 2.10661 -1.80036 5.55192 0 -9.82 -4.44089e-016 0.952764 0.0536518 -0.000428964 5.32907e-014 4.05 1.38778e-014 0.106002 16.8885 -0.0243653 -3.55271e-015 5.19 -3.55271e-015 -0.00413966 -2.96204 -0.00733107 
17.9502 38.5779 -6.17007 0.188091 0.608317 -0.0023846 3.43 7.07212e-014 0 7.83964 -9.95547 5.93768 -2.4869e-014 -18.47 -2.22045e-015 2.02557 26.9645 9.14041 -5.77145e-015 -17.95 -3.29694e-015 -11.9483 -14.8877 -1.5667 -3.43 -2.72948e-013 -3.55271e-014 -8.71877 -8.41777 -4.77413 2.84217e-014 -18.47 -3.10862e-015 -1.05683 26.1566 -14.047 2.87035e-014 -17.95 -1.18783e-014 13.3127 -14.6581 1.71988 -3.19744e-014 4.57 -3.01981e-014 -0.0905187 -3.79473 0.0314188 -1.42109e-014 6.57 4.44089e-016 -0.0848618 -3.47347 0.0184065 1.06 4.19 1.76 9.22991 0.449363 1.48503 5.81 7.81597e-014 4.44089e-015 86.0699 0.778003 6.19885 -2.83469e-014 -12.08 -1.53819e-015 -4.15023 -0.0710118 -7.77854 0 -9.82 -4.44089e-016 0.390354 -0.188684 0.000574344 -1.06 4.19 1.76 -8.71947 0.451571 -1.48167 -6.06 -2.13163e-014 9.27036e-015 -84.8977 10.5105 -2.80091 2.82595e-014 -11.08 4.54911e-016 2.07875 -1.79276 5.62483 0 -9.82 -4.44089e-016 0.863134 0.109042 -0.000827719 5.32907e-014 4.05 1.38778e-014 0.109291 17.0156 -0.0146424 -3.55271e-015 5.19 -3.55271e-015 -0.0382359 -2.91663 0.0272964 
17.9613 38.5751 -6.1719 0.284219 0.622533 0.112628 3.43 1.91958e-013 0 7.70151 -9.98555 5.835 -2.4869e-014 -18.47 -2.22045e-015 2.05065 26.9409 9.0461 -3.06845e-015 -17.95 -6.12973e-015 -11.9195 -14.8843 -1.56253 -3.43 8.92619e-014 -3.55271e-014 -8.81763 -8.43509 -4.79677 2.84217e-014 -18.47 -3.10862e-015 -1.10739 26.2303 -14.0724 2.23377e-014 -17.95 -1.33458e-014 13.3863 -14.7003 1.7345 -3.19744e-014 4.57 -3.01981e-014 -0.198103 -3.75292 -0.0273561 -1.42109e-014 6.57 4.44089e-016 -0.177989 -3.43546 -0.0416333 1.06 4.19 1.76 9.37521 0.460563 1.64671 5.81 7.81597e-014 4.44089e-015 85.9367 0.664751 6.48208 -2.79872e-014 -12.08 -2.42963e-015 -4.03562 -0.021292 -8.16858 0 -9.82 -4.44089e-016 0.440137 -0.255843 0.00131109 -1.06 4.19 1.76 -8.64905 0.442409 -1.35072 -6.06 -2.13163e-014 9.27036e-015 -84.8094 10.6831 -3.0872 2.80092e-014 -11.08 1.15196e-015 1.96066 -1.77003 5.75336 0 -9.82 -4.44089e-016 0.956132 0.0886052 -0.000737435 5.32907e-014 4.05 1.38778e-014 0.197062 17.015 0.0565153 -3.55271e-015 5.19 -3.55271e-015 -0.156523 -2.85377 0.160717 
17.9719 38.5683 -6.17104 0.231938 0.559375 0.172627 3.43 -3.25018e-013 0 7.7871 -9.99809 5.88137 -2.4869e-014 -18.47 -2.22045e-015 2.05383 27.0654 8.87845 1.05824e-015 -17.95 -1.03629e-014 -11.9045 -14.9523 -1.56777 -3.43 1.84019e-013 -3.55271e-014 -8.75671 -8.34346 -4.76662 2.84217e-014 -18.47 -3.10862e-015 -1.12966 26.2449 -13.9579 1.39301e-014 -17.95 -1.52421e-014 13.3907 -14.7649 1.74278 -3.19744e-014 4.57 -3.01981e-014 -0.156618 -3.64123 -0.00532736 -1.42109e-014 6.57 4.44089e-016 -0.142006 -3.33382 -0.0190158 1.06 4.19 1.76 9.36554 0.46246 1.66672 5.81 7.81597e-014 4.44089e-015 85.933 0.623265 6.58459 -2.73633e-014 -12.08 -3.64759e-015 -3.97647 -0.0619039 -8.46778 0 -9.82 -4.44089e-016 -0.0357533 0.0589957 -7.46638e-005 -1.06 4.19 1.76 -8.71503 0.44937 -1.45327 -6.06 -2.13163e-014 9.27036e-015 -84.7381 10.6767 -3.10611 2.76532e-014 -11.08 2.14025e-015 1.95564 -1.76686 5.58163 0 -9.82 -4.44089e-016 1.07261 0.0424502 -0.000392654 5.32907e-014 4.05 1.38778e-014 0.208367 16.8858 0.0183346 -3.55271e-015 5.19 -3.55271e-015 -0.354257 -2.42138 0.162084 
17.9801 38.5704 -6.17062 0.295666 0.56279 0.193534 3.43 -1.64702e-013 0 7.70191 -9.98576 5.85724 -2.4869e-014 -18.47 -2.22045e-015 2.01637 27.0227 8.94213 6.58055e-015 -17.95 -1.59629e-014 -11.8646 -14.9295 -1.56005 -3.43 -3.20466e-013 -3.55271e-014 -8.8511 -8.32934 -4.81392 2.84217e-014 -18.47 -3.10862e-015 -1.13012 26.2349 -13.9166 3.50599e-015 -17.95 -1.75596e-014 13.4043 -14.7654 1.74462 -3.19744e-014 4.57 -3.01981e-014 -0.186768 -3.60263 0.000747772 -1.42109e-014 6.57 4.44089e-016 -0.169821 -3.2987 -0.0144277 1.06 4.19 1.76 9.35118 0.460732 1.64381 5.81 7.81597e-014 4.44089e-015 85.8965 0.714624 6.58156 -2.64771e-014 -12.08 -5.18865e-015 -3.97186 -0.0422468 -8.34745 0 -9.82 -4.44089e-016 0.0477548 -0.0485324 8.27022e-005 -1.06 4.19 1.76 -8.8408 0.450025 -1.48986 -6.06 -2.13163e-014 9.27036e-015 -84.6144 10.6282 -3.15752 2.7193e-014 -11.08 3.41528e-015 1.92299 -1.80504 5.46158 0 -9.82 -4.44089e-016 1.32291 0.0919614 -0.00107798 5.32907e-014 4.05 1.38778e-014 0.102628 16.8524 0.138672 -3.55271e-015 5.19 -3.55271e-015 -0.195195 -1.9908 0.197353 
17.9863 38.5768 -6.17139 0.541253 0.264132 0.18625 3.43 2.61249e-013 0 7.34189 -9.55064 5.64507 -2.4869e-014 -18.47 -2.22045e-015 2.1085 26.7396 9.03224 1.34704e-014 -17.95 -2.28963e-014 -11.891 -14.7938 -1.5492 -3.43 -2.45487e-013 -3.55271e-014 -9.12683 -8.09173 -4.94563 2.84217e-014 -18.47 -3.10862e-015 -1.17033 26.3412 -13.75 -8.90913e-015 -17.95 -2.02909e-014 13.4129 -14.809 1.75097 -3.19744e-014 4.57 -3.01981e-014 -0.396981 -3.3071 0.0601222 -1.42109e-014 6.57 4.44089e-016 -0.36528 -3.02944 0.0258308 1.06 4.19 1.76 9.30649 0.460714 1.63475 5.81 7.81597e-014 4.44089e-015 86.0803 0.735156 6.64765 -2.53306e-014 -12.08 -7.04945e-015 -3.91758 -0.0362907 -8.85651 0 -9.82 -4.44089e-016 -0.094182 0.0209679 0.000420341 -1.06 4.19 1.76 -8.71137 0.447034 -1.42324 -6.06 -2.13163e-014 9.27036e-015 -84.6021 10.7396 -3.25406 2.663e-014 -11.08 4.97256e-015 1.86908 -1.80107 5.60783 0 -9.82 -4.44089e-016 1.39764 0.157321 -0.00183417 5.32907e-014 4.05 1.38778e-014 0.188629 16.8764 0.129024 -3.55271e-015 5.19 -3.55271e-015 -0.242633 -2.28571 0.216773 
